# xmcd
#
# Track frame offsets:
#	183
#	11078
#	33268
#	52828
#	68380
#	79318
#	94495
#	111008
#	121675
#	141573
#	156188
#
# Disc length: 2326 seconds
#
# Revision: 1
# Processed by: cddbd v1.5.2PL0 Copyright (c) Steve Scherf et al.
# Submitted via: audiograbber 1.83.01
#
DISCID=8909140b
DTITLE=Rock Bottom and Blue Kerosene - Family Place
DYEAR=1991
DGENRE=Blues
TTITLE0=I Got To Go
TTITLE1=In The Night
TTITLE2=Off The Wall
TTITLE3=Stop Right Now
TTITLE4=Rattlesnake
TTITLE5=Don't Say No More
TTITLE6=Nature
TTITLE7=Ya-Ya
TTITLE8=Great Big Eyes
TTITLE9=Moanin' at Midnight
TTITLE10=Dust My Broom
EXTD=
EXTT0=
EXTT1=
EXTT2=
EXTT3=
EXTT4=
EXTT5=
EXTT6=
EXTT7=
EXTT8=
EXTT9=
EXTT10=
PLAYORDER=
